<?xml version="1.0" encoding="UTF-8" standalone="no"?>
<svg
   width="100mm"
   height="100mm"
   viewBox="0 0 100 100"
   version="1.1"
   id="svg5"
   xml:space="preserve"
   inkscape:version="1.2.2 (732a01da63, 2022-12-09)"
   sodipodi:docname="new-element.svg"
   xmlns:inkscape="http://www.inkscape.org/namespaces/inkscape"
   xmlns:sodipodi="http://sodipodi.sourceforge.net/DTD/sodipodi-0.dtd"
   xmlns="http://www.w3.org/2000/svg"
   xmlns:svg="http://www.w3.org/2000/svg"><sodipodi:namedview
     id="namedview7"
     pagecolor="#ffffff"
     bordercolor="#666666"
     borderopacity="1.0"
     inkscape:showpageshadow="2"
     inkscape:pageopacity="0.0"
     inkscape:pagecheckerboard="0"
     inkscape:deskcolor="#d1d1d1"
     inkscape:document-units="mm"
     showgrid="false"
     inkscape:current-layer="layer1" /><defs
     id="defs2" /><g
     inkscape:label="Layer 1"
     inkscape:groupmode="layer"
     id="layer1"><path
       id="path295"
       style="color:#000000;clip-rule:nonzero;display:inline;overflow:visible;visibility:visible;opacity:1;isolation:auto;color-interpolation:sRGB;color-interpolation-filters:linearRGB;solid-color:#000000;solid-opacity:1;fill:#000000;fill-opacity:1;fill-rule:evenodd;stroke:none;stroke-width:5.30007;stroke-linecap:butt;stroke-linejoin:miter;stroke-miterlimit:4;stroke-dasharray:none;stroke-dashoffset:0;stroke-opacity:1;color-rendering:auto;image-rendering:auto;shape-rendering:auto;text-rendering:auto;enable-background:accumulate"
       inkscape:transform-center-x="0.3962"
       inkscape:transform-center-y="-0.9341"
       d="M 77.51,15.37 A 24.94,54.37 59.89 0 0 39.67,26.93 24.94,54.37 59.89 0 0 1.627,76.13 24.94,54.37 59.89 0 0 58.07,73.49 24.94,54.37 59.89 0 0 79.74,58.12 a 11.36,11.32 0 0 0 8.07,2.55 11.36,11.32 0 0 0 11.57,-11.3 11.36,11.32 0 0 0 -4.4,-8.9 24.94,54.37 59.89 0 0 2.25,-16.16 24.94,54.37 59.89 0 0 -19.72,-8.94 z m -1.27,4.85 a 19.74,36.91 59.32 0 1 16.43,8.52 19.74,36.91 59.32 0 1 -0.4,10.1 11.36,11.32 0 0 0 -4.46,-0.82 11.36,11.32 0 0 0 -12.21,11.37 11.36,11.32 0 0 0 2.38,6.84 19.74,36.91 59.32 0 1 -12.67,8.4 19.74,36.91 59.32 0 1 -38.42,-2.13 19.74,36.91 59.32 0 1 25.35,-35.85 19.74,36.91 59.32 0 1 24,-6.43 z" /></g></svg>
