<?xml version="1.0" encoding="UTF-8" standalone="no"?>
<svg
   width="210mm"
   height="236mm"
   viewBox="0 0 210 236"
   version="1.1"
   id="svg5"
   xml:space="preserve"
   inkscape:version="1.2.2 (732a01da63, 2022-12-09)"
   sodipodi:docname="rctgo.svg"
   xmlns:inkscape="http://www.inkscape.org/namespaces/inkscape"
   xmlns:sodipodi="http://sodipodi.sourceforge.net/DTD/sodipodi-0.dtd"
   xmlns="http://www.w3.org/2000/svg"
   xmlns:svg="http://www.w3.org/2000/svg"><sodipodi:namedview
     id="namedview7"
     pagecolor="#ffffff"
     bordercolor="#000000"
     borderopacity="0.25" /><defs
     id="defs2" /><g
     inkscape:label="Layer 1"
     inkscape:groupmode="layer"
     id="layer1"><path
       id="path179"
       style="fill:#000000;stroke-width:14.1338"
       d="M 161.94245,5.9194622 C 139.38087,6.1865583 134.9172,19.693088 131.49393,21.40571 c -3.53368,1.778862 -39.088908,2.206215 -39.088908,2.206215 l -1.325331,0.6624 c 0,0 4.858483,0.881418 19.213199,1.543817 14.35473,0.662399 10.82126,4.198755 20.09655,7.067371 9.27535,2.868614 11.70459,15.899179 24.51341,17.667355 12.80877,1.768176 21.42146,-0.427349 26.05931,1.768176 4.63786,2.206218 6.84585,9.719106 10.37953,12.587721 3.53368,2.873955 10.37942,0.427361 12.36715,-3.531012 1.9872,-3.974393 -1.32534,-22.084603 -3.09191,-29.37206 -1.76657,-7.287453 -11.92537,-25.3971225 -36.43884,-26.0595218 -0.76603,-0.020296 -1.50803,-0.035251 -2.23612,-0.027241 z M 43.433435,20.688289 C 34.425609,20.709663 22.723743,21.890223 15.745422,26.457571 7.1566716,32.079955 4.189071,41.921388 4.8138088,56.133047 5.4388148,70.343114 16.352747,89.176609 16.352747,89.176609 c 0,0 -1.927902,59.364311 4.830705,77.708491 6.75866,18.34579 33.302324,42.02067 48.750751,49.74456 15.448375,7.72444 53.595297,15.42963 73.871437,13.49906 20.27598,-1.93379 43.91037,-20.73737 50.18617,-29.42708 6.27597,-8.68918 3.8649,-13.52684 3.8649,-13.52684 0,0 -11.08889,-0.96154 -19.296,4.82911 -8.20697,5.79333 -20.28982,12.5327 -20.28982,12.5327 0,0 1.93217,-11.09946 1.93217,-14.96221 0,-3.86221 -1.91188,-10.14164 -12.53275,-5.79706 -10.62093,4.34298 -20.77192,5.33125 -19.32362,13.05728 1.4482,7.72389 8.39195,10.13096 8.39195,10.13096 0,0 -18.41239,-0.32051 -28.87499,-2.81519 -10.462696,-2.50002 -27.483895,-5.2992 -31.856369,-16.23198 -4.372367,-10.93119 -11.532795,-19.04558 -13.250491,-39.50302 -1.717965,-20.45532 -3.747896,-46.07947 0,-60.28954 C 66.504686,73.915795 74.777783,75.955336 76.807822,67.366591 78.837755,58.778899 78.507623,40.807586 71.949339,33.46778 65.390734,26.127974 58.204773,21.292461 49.147482,20.824508 47.449283,20.717665 45.511766,20.664251 43.433221,20.664251 Z M 105.93153,93.39994 c -14.637735,0.651716 -29.656618,21.65083 -30.089636,40.41435 -0.443379,19.21332 14.575558,37.7669 32.242866,36.21774 17.66735,-1.54381 23.63183,-27.60548 23.85084,-39.30965 0.21903,-11.70576 -6.40438,-36.895091 -24.95508,-37.32244 -0.35256,-0.0082 -0.69765,-0.01546 -1.04915,0 z m 74.09233,2.868615 c -15.11894,0.480776 -24.03013,16.221825 -24.89991,36.438885 -0.88356,20.53812 15.90057,32.46344 27.82605,31.80103 11.92543,-0.6624 21.42204,-14.57704 20.75911,-27.60547 -0.6624,-13.03003 4.41671,-40.634445 -22.96752,-40.634445 -0.24573,0 -0.47542,-0.0082 -0.71795,0 z m -0.85578,34.947955 c 0.12821,-0.0123 0.25641,0 0.38462,0 5.46553,0 8.10231,4.69022 5.60383,9.22017 -2.49841,4.52996 -7.64979,5.33125 -9.52379,-0.48077 -1.36166,-2.27032 -0.38462,-8.37294 3.53368,-8.75062 z m -68.51605,1.35151 c 4.57964,-0.21368 5.56677,6.03051 4.55506,10.07594 l -0.30449,1.24468 c -1.06678,4.26285 -9.06567,4.8291 -10.15874,-1.57588 -1.06251,-5.27781 -1.33922,-8.85904 5.43824,-9.71696 0.15492,-0.0198 0.32052,-0.0213 0.47009,-0.0278 z m 42.12548,28.35068 c -1.25375,0.0177 -2.60846,0.0534 -4.05773,0.0534 0,0 -7.50679,0 -7.28777,7.72977 0.21901,7.72923 7.50861,11.04176 7.50861,11.04176 0,0 11.04188,-6.18274 11.92543,-13.02949 0.71794,-5.55882 -2.65548,-5.87398 -8.08833,-5.79706 z" /></g></svg>
